Patient4_TMGait_0pt7_01_left_18_EMG.mot
version=1
nRows=34
nColumns=33
inDegrees=no
endheader
time	1LAddLong	2LGlutMax	3LGlutMed	4LIliopsoas	5LSemiMemb	6LBicFemLong	7LRecFem	8LVastMed	9LVastLat	10LGasMed	11LTibAnt	12lTibPost	13LPeroneusLong	14LSol	15LExtDigLong	16LFlexDigLong	17RAddLong	18RGlutMax	19RGlutMed	20RIliopsoas	21RSemiMemb	22RBicFemLong	23RRecFem	24RVastMed	25RVastLat	26RGasMed	27RTibAnt	28RTibPost	29RPeroneusLong	30RSol	31RExtDigLong	32RFlexDigLong
21.055	0.035095	0.84503	0.11612	0.015564	-0.066376	0.10681	-0.11643	0.042725	-0.36987	-0.39322	-0.074463	0.034027	0.64163	0.1622	0.048828	0.013885	-0.045776	0.80383	-0.29846	0.047302	0.017548	-0.27481	0.62012	-0.12039	-0.021667	0.005493	0.10086	-0.28107	-0.54352	0.28168	0	-0.011749
21.056	0.040741	0.77164	0.046539	0.023804	0.014191	-0.05661	-0.14282	0.029144	-0.32333	-0.22003	-0.084381	0.024414	0.33478	0.18112	0.033417	0.014038	-0.11292	0.75272	-0.26413	0.17166	0.001373	-0.25192	0.46478	-0.20157	-0.035248	0.004425	0.066223	-0.45609	0.14343	-0.096893	-0.00473	-0.007324
21.057	0.039825	0.62668	0.080719	0.022583	0.058441	-0.32486	-0.15945	0.013428	-0.31677	-0.17364	0.018463	-0.021667	-0.67917	0.15198	0.036774	0.009766	-0.077667	0.60013	-0.48431	0.24506	-0.006561	-0.23499	0.43915	-0.17716	-0.024872	-0.004425	-0.10834	0.28427	0.63309	-0.036926	0.007782	-0.010986
21.058	0.035706	0.5336	0.022736	0.002594	-0.012817	0.071716	-0.25543	0.007172	-0.26794	-0.17487	-0.070496	-0.02243	-0.70664	0.19714	-0.015869	0.007019	-0.002289	0.60547	-0.20493	0.21164	-0.001526	-0.24765	0.51758	-0.2301	-0.032501	-0.004272	-0.11032	0.21103	0.54138	-0.023193	-0.001373	-0.013885
21.059	0.03891	0.52048	-0.052338	0.010071	-0.070648	0.73563	-0.31754	-0.019073	-0.15503	-0.13123	0.075989	-0.026855	-0.12131	0.27023	-0.050354	0.012665	0.11078	0.5484	-0.12909	0.079346	-0.007935	-0.24399	0.62317	-0.177	-0.045013	-0.006256	0.009155	0.072479	-0.39703	-0.16815	0.000305	-0.01297
21.06	0.04303	0.47714	-0.087738	0.006409	-0.0914	1.2434	-0.16159	-0.033875	-0.15503	-0.054626	0.049438	-0.05722	0.63263	0.23621	-0.10925	0.000763	0.13641	0.42419	-0.8194	0.028992	0.00061	-0.24185	0.6929	-0.19486	-0.058136	-0.000763	0.049591	0.011139	-0.025482	-0.032349	0.000153	-0.011749
21.061	0.03006	0.5246	-0.075378	0.001526	-0.036926	1.1385	-0.02594	-0.011597	-0.029907	-0.061493	0.019989	-0.090179	0.50659	0.21194	-0.092621	0.003204	0.14969	0.31235	-0.81986	0.016479	0.015106	-0.18982	0.62317	-0.13596	-0.03418	-0.012512	0.024109	0.014038	0.54291	0.033569	-0.003204	-0.009918
21.062	0.029907	0.47867	-0.20767	0.010071	-0.070496	0.84457	-0.10727	0.006714	0.093994	-0.095215	-0.043793	-0.072174	-0.50583	0.3894	0.031128	0.007019	0.11627	0.2803	-0.56808	0.018768	0.045166	-0.1712	0.75501	-0.13046	-0.020142	-0.001831	-0.035095	-0.099792	0.56839	0.42786	-0.000458	-0.010834
21.063	0.035248	0.39642	-0.17319	0.017548	-0.18066	0.59876	-0.18341	0.010071	0.089722	-0.088043	-0.008392	-0.08667	-0.54855	0.25787	0.051575	0.020447	0.092621	0.18753	-0.27145	0.092773	0.070496	-0.15717	1.0172	-0.039368	-0.001221	-0.003967	-0.060425	-0.24643	0.37399	0.46173	0	-0.018311
21.064	0.028229	0.38681	-0.22186	0.012665	-0.15137	0.53406	-0.17639	0.004425	-0.072021	-0.099487	-0.022888	-0.088196	-0.77255	0.044098	0.15213	0.001984	0.050659	0.090027	-0.24231	0.059052	0.10635	-0.12711	1.1577	0.022583	-0.005646	-0.010223	-0.066223	-0.10803	0.15076	0.12787	-0.002594	0.001068
21.065	0.034943	0.38986	-0.13306	0.003967	-0.081482	0.11124	-0.15884	-0.001221	-0.15503	-0.06485	0.011292	-0.083008	-0.61569	0.035248	0.16251	-0.004578	0.027008	0.029755	-0.4454	0.047913	0.10056	-0.1207	1.0399	0.000763	-0.012054	-0.018005	-0.067596	0.076599	0.038757	0.023041	-0.003052	-0.000305
21.066	0.036011	0.38223	-0.06485	0.01236	-0.046387	-0.78934	-0.17578	-0.005646	0.005035	-0.009308	0.003204	-0.089264	0.38666	0.072327	-0.061951	-0.014343	0.039825	-0.076447	-0.8638	0.073395	0.11475	-0.12131	0.76279	-0.070801	-0.019989	-0.003815	-0.088959	0.012665	-0.52673	-0.35523	-0.003357	-0.004272
21.067	0.039215	0.37582	-0.061646	0.003357	0.070038	-0.80627	-0.13992	-0.003815	0.14984	0.15182	0.019836	-0.082703	0.45059	0.063477	-0.10468	-0.01297	0.067291	-0.11322	-0.8078	0.031128	0.12512	-0.12238	0.58899	-0.19073	-0.012054	-0.003967	-0.057678	-0.004578	-0.25406	-0.23758	-0.00061	0.000153
21.068	0.033417	0.36316	-0.063019	0.005188	0.011597	0.18738	-0.017853	0.006866	0.12497	0.34363	0.15533	-0.085449	0.19714	0.014801	-0.094147	-0.005493	0.089417	-0.1976	-0.68726	0.018311	0.13611	-0.15732	0.62607	-0.11841	-0.037231	-0.00885	-0.14175	0.034332	-0.002747	-0.001678	-0.001984	-0.005798
21.069	0.006409	0.43579	-0.07782	0.02121	-0.060425	0.7872	0.009003	0.010223	0.09491	0.42831	0.15091	-0.079193	-0.17014	-0.10132	-0.085144	0.01709	0.10452	-0.22003	-0.54474	-0.084076	0.13657	-0.13428	0.4985	-0.20248	-0.016937	-0.001526	-0.024414	-0.046844	-0.1648	-0.097198	-0.001221	-0.005035
21.07	0.000916	0.56213	-0.12375	0.019836	-0.062714	0.5394	0.006256	-0.005493	0.19363	0.37643	0.12833	-0.071106	0.14557	-0.12787	0.010223	-0.001068	0.078125	-0.28671	-0.47836	-0.041351	0.12116	-0.10346	0.4155	-0.27618	-0.019836	-0.002136	-0.001984	-0.084991	-0.092926	-0.20691	-0.001678	-0.004272
21.071	0.008087	0.63171	-0.24139	0.013275	-0.021057	-0.41443	-0.061646	-0.045929	0.23025	0.1033	0.046234	-0.068512	0.43488	-0.006256	0.16296	-0.009918	0.077515	-0.34943	-0.625	-0.06897	0.10513	-0.066528	0.38818	-0.27237	-0.019684	-0.003052	0.007172	0.03479	0.044708	-0.21652	-0.003052	-0.003357
21.072	-0.005035	0.73486	-0.31357	0.023651	-0.033112	-0.72357	-0.005646	-0.01236	0.21378	-0.18249	-0.19134	-0.061951	0.050049	-0.098877	0.11383	-0.022888	0.058136	-0.38483	-0.5574	-0.070343	0.068054	-0.039063	0.52033	-0.26398	-0.007935	0	0.097809	0.024414	0.14938	-0.18173	-0.002136	-0.011902
21.073	-0.014343	0.69611	-0.17548	0.027618	-0.026245	-0.54993	0.080719	0.027466	0.21027	-0.10132	-0.090179	-0.057678	0.71487	-0.13245	0.010529	-0.012665	0.054016	-0.40314	-0.3537	0.026245	0.073547	0.009613	0.77591	-0.20004	0.00412	0.002747	0.17487	0.002899	0.15869	-0.13092	0.002747	-0.018158
21.074	-0.022583	0.71823	0.077057	0.007172	-0.049133	-0.35248	0.002594	0.027618	0.34256	-0.068512	0.054016	-0.049286	1.1198	0.013428	0.071869	-0.01236	-0.008545	-0.45029	-0.20996	0.081024	0.076294	0.033722	0.78095	-0.14771	0.025635	-0.000153	0.61188	0.084076	-0.19486	-0.13229	0.002136	-0.016479
21.075	-0.011139	0.62531	0.004578	0.014954	-0.030823	-0.64346	-0.12817	0.018311	0.27481	0.13351	0.076447	-0.045166	0.27481	-0.011292	0.006866	-0.022278	-0.063934	-0.47531	-0.03006	0.056	0.085144	0.068207	0.7164	-0.15213	0.023499	-0.007172	0.35675	0.050507	-0.2803	-0.16586	0.001373	-0.018005
21.076	-0.034027	0.70175	0.016937	0.004883	-0.066833	-0.82291	-0.21362	0.028381	0.12711	0.28686	-0.002594	-0.03891	-0.20355	-0.1149	-0.28229	-0.008545	-0.084229	-0.55756	0.17654	0.030518	0.11246	0.076294	0.56976	-0.12955	0.001221	-0.004578	0.13687	-0.011902	-0.63858	-0.12497	-0.000153	-0.017242
21.077	-0.038452	0.64484	0.041199	0.006866	-0.18814	-0.36468	-0.41565	0.018616	0.06958	0.1944	-0.03952	-0.014191	-0.53558	-0.242	-0.15091	-0.017242	-0.03006	-0.63156	0.090027	-0.010223	0.10407	0.090637	0.54306	-0.08316	-0.00885	-0.002594	-0.050507	-0.022125	-0.4953	-0.042725	0.001984	-0.018463
21.078	-0.030212	0.56107	-0.045013	0.006104	-0.2211	0.2948	-0.64819	0.006256	0.077057	-0.059204	-0.063629	-0.017242	-0.30121	-0.27191	0.12451	-0.008392	-0.018921	-0.69794	0.12482	-0.010834	0.080872	0.067444	0.58502	-0.032806	0.009766	-0.00412	-0.3331	-0.027161	-0.025635	-0.048218	-0.003204	-0.014648
21.079	-0.013885	0.46997	-0.041046	0.008698	-0.19272	0.62943	-0.65002	-0.047302	0.18677	-0.016479	-0.037231	-0.01236	-0.73624	-0.392	0.13077	-0.00946	-0.010529	-0.76889	0.15488	0.023499	0.072784	0.068665	0.59357	0.054932	0	0.001831	-0.4071	-0.019379	0.1033	-0.028687	0.003052	-0.009918
21.08	-0.010681	0.49393	-0.13534	0.006104	-0.094757	0.82611	-0.63583	-0.081787	0.28336	-0.35736	-0.056152	0.021973	0.096588	-0.20721	0.13611	-0.012817	0.003357	-0.81436	-0.08316	0.14771	0.092773	0.088196	0.56137	-0.084229	-0.011597	-0.009155	-0.11978	-0.020599	0.21698	0.023956	-0.001678	-0.015259
21.081	-0.019226	0.47348	-0.17944	0.001373	-0.13351	0.97305	-0.4924	-0.058289	0.28183	-0.32745	-0.054016	0.029449	0.32166	-0.1738	0.061951	0.003662	-0.020447	-0.86655	-0.040131	0.22324	0.10864	0.095062	0.35355	-0.17624	-0.028076	-0.010986	0.11017	-0.01358	0.42267	0.070496	0.002747	-0.013428
21.082	-0.023804	0.46539	-0.13611	0.016327	-0.12894	0.82565	-0.44586	-0.041962	0.20981	-0.1442	-0.032501	0.028534	-0.16037	-0.24216	0.068665	-0.00885	-0.036621	-0.89722	0.15411	0.23209	0.11658	0.11734	0.26382	-0.23209	-0.029907	-0.014954	-0.13153	-0.01709	0.73257	0.075989	0.000153	-0.006409
21.083	-0.011597	0.41901	-0.17441	0.027466	-0.19409	0.45639	-0.46707	-0.02182	0.13534	0.031128	0.00473	0.035095	-0.016022	-0.22385	0.12421	-0.018005	-0.11444	-0.94925	0.007629	0.12955	0.093536	0.10239	0.37094	-0.26199	-0.033417	-0.008545	-0.43472	-0.015869	0.51071	0.079193	-0.001068	-0.001678
21.084	0.007324	0.31723	-0.028992	0.010834	-0.14236	-0.61233	-0.47714	-0.020752	0.1294	0.23422	-0.042725	0.033722	0.073242	-0.064392	0.067444	0.00351	-0.13168	-0.87463	0.17532	0.043335	0.070953	0.103	0.46692	-0.2681	-0.037994	-0.00885	-0.32013	-0.014954	0.060883	0.047607	-0.001221	-0.004272
21.085	0.017853	0.29129	0.03952	0.016022	-0.042877	-1.4931	-0.4509	-0.01709	0.12039	0.02243	-0.02243	0.036926	-0.7048	0.10498	0.051575	-0.003967	-0.093231	-0.90408	0.26321	0.002441	0.066833	0.10803	0.57785	-0.28244	-0.066986	-0.006256	-0.32272	-0.014648	-0.00885	0.13245	0.001831	-0.003662
21.086	0.020599	0.19089	-0.013885	-0.005646	0.012817	-1.1394	-0.38605	-0.034027	0.080261	-0.15808	0.055237	0.023651	-0.040131	0.012512	-0.10498	-0.01297	-0.097046	-0.88379	0.38376	-0.030365	0.052032	0.10696	0.69061	-0.33463	-0.063629	-0.010376	-0.02243	-0.014648	-0.081024	0.23178	0.010071	-0.006866
21.087	0.008087	0.14954	0.13321	-0.005341	0.029755	-0.78964	-0.33127	0.059509	0.091095	-0.070038	0.015259	0.044556	0.13443	0.00351	-0.15503	-0.008392	-0.05127	-0.85922	0.46463	-0.021973	0.053406	0.12329	0.77545	-0.33127	-0.051727	-0.01709	0.17517	-0.012512	-0.30441	0.30594	-0.001678	-0.00824
21.088	-0.012054	0.083771	0.31738	-0.003967	0.055084	-0.61645	-0.40848	0.046692	0.2359	-0.037689	0.034485	0.036163	-0.16907	-0.26672	-0.20508	-0.009766	0.007782	-0.92071	0.39276	-0.11643	0.047607	0.13748	0.84381	-0.30609	-0.056152	-0.011292	0.071716	-0.015411	-0.44754	0.16449	0.005188	-0.003052
